HIERARCHY
ROOT Hips
{
	OFFSET 0.00000 0.00000 0.00000
	CHANNELS 6 Xposition Yposition Zposition Zrotation Yrotation Xrotation 
	JOINT LHipJoint
	{
		OFFSET 0 0 0
		CHANNELS 3 Zrotation Yrotation Xrotation
		JOINT LeftUpLeg
		{
			OFFSET 1.65674 -1.80282 0.62477
			CHANNELS 3 Zrotation Yrotation Xrotation
			JOINT LeftLeg
			{
				OFFSET 2.59720 -7.13576 0.00000
				CHANNELS 3 Zrotation Yrotation Xrotation
				JOINT LeftFoot
				{
					OFFSET 2.49236 -6.84770 0.00000
					CHANNELS 3 Zrotation Yrotation Xrotation
					JOINT LeftToeBase
					{
						OFFSET 0.19704 -0.54136 2.14581
						CHANNELS 3 Zrotation Yrotation Xrotation
						End Site
						{
							OFFSET 0.00000 -0.00000 1.11249
						}
					}
				}
			}
		}
	}
	JOINT RHipJoint
	{
		OFFSET 0 0 0
		CHANNELS 3 Zrotation Yrotation Xrotation
		JOINT RightUpLeg
		{
			OFFSET -1.61070 -1.80282 0.62476
			CHANNELS 3 Zrotation Yrotation Xrotation
			JOINT RightLeg
			{
				OFFSET -2.59502 -7.12977 0.00000
				CHANNELS 3 Zrotation Yrotation Xrotation
				JOINT RightFoot
				{
					OFFSET -2.46780 -6.78024 0.00000
					CHANNELS 3 Zrotation Yrotation Xrotation
					JOINT RightToeBase
					{
						OFFSET -0.23024 -0.63258 2.13368
						CHANNELS 3 Zrotation Yrotation Xrotation
						End Site
						{
							OFFSET -0.00000 -0.00000 1.11569
						}
					}
				}
			}
		}
	}
	JOINT LowerBack
	{
		OFFSET 0 0 0
		CHANNELS 3 Zrotation Yrotation Xrotation
		JOINT Spine
		{
			OFFSET 0.01961 2.05450 -0.14112
			CHANNELS 3 Zrotation Yrotation Xrotation
			JOINT Spine1
			{
				OFFSET 0.01021 2.06436 -0.05921
				CHANNELS 3 Zrotation Yrotation Xrotation
				JOINT Neck
				{
					OFFSET 0 0 0
					CHANNELS 3 Zrotation Yrotation Xrotation
					JOINT Neck1
					{
						OFFSET 0.00713 1.56711 0.14968
						CHANNELS 3 Zrotation Yrotation Xrotation
						JOINT Head
						{
							OFFSET 0.03429 1.56041 -0.10006
							CHANNELS 3 Zrotation Yrotation Xrotation
							End Site
							{
								OFFSET 0.01305 1.62560 -0.05265
							}
						}
					}
				}
				JOINT LeftShoulder
				{
					OFFSET 0 0 0
					CHANNELS 3 Zrotation Yrotation Xrotation
					JOINT LeftArm
					{
						OFFSET 3.54205 0.90436 -0.17364
						CHANNELS 3 Zrotation Yrotation Xrotation
						JOINT LeftForeArm
						{
							OFFSET 4.86513 -0.00000 -0.00000
							CHANNELS 3 Zrotation Yrotation Xrotation
							JOINT LeftHand
							{
								OFFSET 3.35554 -0.00000 0.00000
								CHANNELS 3 Zrotation Yrotation Xrotation
								JOINT LeftFingerBase
								{
									OFFSET 0 0 0
									CHANNELS 3 Zrotation Yrotation Xrotation
									JOINT LeftHandIndex1
									{
										OFFSET 0.66117 -0.00000 0.00000
										CHANNELS 3 Zrotation Yrotation Xrotation
										End Site
										{
											OFFSET 0.53306 -0.00000 0.00000
										}
									}
								}
								JOINT LThumb
								{
									OFFSET 0 0 0
									CHANNELS 3 Zrotation Yrotation Xrotation
									End Site
									{
										OFFSET 0.54120 -0.00000 0.54120
									}
								}
							}
						}
					}
				}
				JOINT RightShoulder
				{
					OFFSET 0 0 0
					CHANNELS 3 Zrotation Yrotation Xrotation
					JOINT RightArm
					{
						OFFSET -3.49802 0.75994 -0.32616
						CHANNELS 3 Zrotation Yrotation Xrotation
						JOINT RightForeArm
						{
							OFFSET -5.02649 -0.00000 0.00000
							CHANNELS 3 Zrotation Yrotation Xrotation
							JOINT RightHand
							{
								OFFSET -3.36431 -0.00000 0.00000
								CHANNELS 3 Zrotation Yrotation Xrotation
								JOINT RightFingerBase
								{
									OFFSET 0 0 0
									CHANNELS 3 Zrotation Yrotation Xrotation
									JOINT RightHandIndex1
									{
										OFFSET -0.73041 -0.00000 0.00000
										CHANNELS 3 Zrotation Yrotation Xrotation
										End Site
										{
											OFFSET -0.58887 -0.00000 0.00000
										}
									}
								}
								JOINT RThumb
								{
									OFFSET 0 0 0
									CHANNELS 3 Zrotation Yrotation Xrotation
									End Site
									{
										OFFSET -0.59786 -0.00000 0.59786
									}
								}
							}
						}
					}
				}
			}
		}
	}
}
MOTION
Frames: 8
Frame Time: 0.033333
9.4455 17.861 -0.5 0 0 0 0 0 0 -21 0 0 0 0 0 0 0 0 0 0 0 0 0 0 21 0 0 0 0 0 0 0 0 0 0 0 0 0 0 0 0 0 0 0 0 0 0 -16 0 0 21 0 0 11 0 0 0 -8 0 0 0 0 0 0 0 0 0 0 0 0 0 0 0 0 0 0 0 0 8 0 0 0 0 0 0 0 0 0 0 0 0 0 0 0 0 0
9.4570 17.8445 -0.5267 -0.0553 -3.9244 -3.1882 0.0000 0.0000 0.0000 -23.2700 -3.4607 0.4633 1.0966 6.6545 18.6957 0.3369 9.9137 -18.6672 0.0007 -0.1726 -0.4742 0.0000 0.0000 0.0000 23.2296 7.5623 0.6768 -0.9881 -6.3268 17.7356 -0.5233 -3.9083 -15.6532 -0.0667 -1.6663 4.5842 0.8039 -1.0834 5.4778 0.5644 -1.4082 3.3307 0.1995 -0.6997 0.3484 -3.8790 -4.6601 -12.9325 3.4655 -5.8179 2.8093 1.4270 -2.7868 3.4655 0.0000 -0.0000 0.0000 -90.0097 2.7728 32.0544 24.2582 -35.4361 -7.8557 -0.0000 0.0000 -26.3663 29.1362 17.5949 9.5645 -7.1250 0.0000 -0.0000 1.1538 49.9303 0.1403 0.0000 -0.0000 0.0000 86.7213 -1.8467 34.2168 -24.6983 35.8940 -8.1123 0.0000 -0.0000 -17.0063 -28.6395 16.4178 -8.7745 7.1250 -0.0000 -0.0000 -0.5618 -11.4220 -0.4394
9.4642 17.8591 -0.6213 -0.1511 -3.6158 -1.9626 0.0000 0.0000 0.0000 -23.0073 -4.1954 -1.2579 1.1225 6.7300 18.9179 0.3625 9.5527 -18.5757 0.0027 0.3380 0.9287 0.0000 0.0000 0.0000 23.1905 8.6787 -1.2686 -1.0953 -6.6507 18.6845 -0.4951 -4.7080 -15.8522 -0.0404 -1.2972 3.5668 1.0256 -0.9587 6.5306 0.4570 -1.2140 3.1599 -0.0239 -0.6013 -0.4177 -3.4410 -3.8058 -12.7376 3.2713 -4.7223 1.8510 1.3712 -2.2507 3.0274 0.0000 -0.0000 0.0000 -88.8940 1.8750 36.2761 28.5373 -39.6062 -10.4645 -0.0000 0.0000 -28.5401 27.2377 17.1428 8.6276 -7.1250 0.0000 -0.0000 -0.6574 49.1116 -0.0667 0.0000 -0.0000 0.0000 86.6420 -1.3725 36.9451 -27.8144 38.9448 -10.0068 0.0000 -0.0000 -17.4251 -28.5669 16.0408 -8.5559 7.1250 -0.0000 -0.0000 -0.5541 -11.8535 -0.4285
9.4739 17.8587 -0.7147 -0.3669 -3.2437 -0.8806 0.0000 0.0000 0.0000 -22.5990 -4.8905 -3.4004 1.2748 7.1557 20.1775 0.4381 8.9612 -18.8273 0.0061 0.5031 1.3824 0.0000 0.0000 0.0000 23.2031 9.2060 -2.7616 -1.1057 -6.6810 18.7738 -0.4550 -5.5294 -15.9681 -0.0294 -1.1070 3.0434 1.4739 -0.9702 7.3486 0.2583 -1.1962 3.7717 -0.4726 -0.5828 -0.2524 -2.5345 -2.8960 -13.4252 2.8025 -3.5853 0.5208 1.1281 -1.6951 2.6191 0.0000 -0.0000 0.0000 -87.2867 0.7626 39.9396 34.0067 -44.0897 -14.1177 -0.0000 0.0000 -28.4173 28.4157 14.2477 7.5849 -7.1250 0.0000 -0.0000 0.8875 46.0817 0.0237 0.0000 -0.0000 0.0000 86.3698 0.4984 39.9287 -30.2987 41.1481 -11.6057 0.0000 -0.0000 -17.4642 -27.9179 18.0611 -9.3290 7.1250 -0.0000 -0.0000 0.0922 -9.7233 0.0753
9.4814 17.8559 -0.8229 -0.2966 -3.2022 1.0157 0.0000 0.0000 0.0000 -22.4220 -6.1493 -6.2180 1.3992 7.4829 21.1541 0.4137 8.9532 -18.5465 0.0173 0.8484 2.3318 0.0000 0.0000 0.0000 22.7458 10.4766 -5.5305 -1.2206 -7.0077 19.7381 -0.4593 -5.9231 -16.3371 -0.0097 -0.6359 1.7473 1.3165 -1.0302 8.7982 0.2311 -1.2581 3.5754 -0.3792 -0.6210 -1.2527 -3.7517 -1.8329 -11.4568 4.3654 -2.0322 -2.7266 1.9493 -0.9013 1.1908 -0.0000 -0.0000 0.0000 -84.9790 1.3641 43.1177 39.9472 -48.0386 -18.4000 -0.0000 0.0000 -27.0210 28.2709 11.4561 6.0969 -7.1250 0.0000 -0.0000 1.0203 42.9357 -0.0520 -0.0000 -0.0000 0.0000 84.8467 1.6232 43.8236 -31.1063 41.8229 -12.1406 0.0000 -0.0000 -18.0805 -28.9023 21.0316 -11.2071 7.1250 -0.0000 -0.0000 -0.1722 -6.2687 -0.1523
9.4988 17.8585 -0.9485 -0.3140 -3.0179 3.0673 0.0000 0.0000 0.0000 -22.1014 -7.3233 -9.4339 1.5582 7.8780 22.3440 0.3882 8.9546 -18.2563 0.0038 0.4000 1.0991 0.0000 0.0000 0.0000 22.2071 11.5575 -9.1602 -1.4556 -7.6258 21.5832 -0.4750 -6.0172 -16.6070 -0.0006 0.1641 -0.4510 1.4082 -1.0560 10.3727 0.0900 -1.2587 3.5823 -0.5480 -0.6238 -2.1151 -3.8703 -1.2173 -10.8749 4.8481 -1.1531 -5.1298 2.1603 -0.4669 0.2865 0.0000 0.0000 0.0000 -82.5348 1.6942 44.5861 41.9763 -49.1982 -19.9226 -0.0000 0.0000 -25.3980 28.5389 5.6833 3.0827 -7.1250 0.0000 -0.0000 1.5456 36.4391 -0.3255 0.0000 0.0000 0.0000 83.1791 2.8126 46.3159 -29.5701 40.5221 -11.1293 0.0000 -0.0000 -17.7175 -28.7535 23.3668 -12.2774 7.1250 -0.0000 -0.0000 0.2462 -3.7452 0.2296
9.4911 17.8446 -1.0662 -0.0753 -2.9834 5.0188 0.0000 0.0000 0.0000 -21.9085 -8.2844 -13.2794 1.8684 8.5864 24.5099 0.3888 8.7251 -18.0332 0.0017 -0.2639 -0.7250 0.0000 0.0000 0.0000 21.4459 12.9276 -12.1972 -1.6302 -8.0492 22.8636 -0.4806 -6.2839 -16.8922 -0.0000 0.0446 -0.1226 0.8452 -0.7963 12.0622 0.1478 -0.9517 3.9176 -0.1884 -0.4733 -2.6737 -4.9964 -0.9227 -10.2822 6.0026 -0.5594 -7.6290 2.7787 -0.1549 -0.6279 0.0000 -0.0000 0.0000 -79.6040 2.0785 45.5524 40.0196 -48.0815 -18.4538 -0.0000 0.0000 -25.3247 30.3559 4.3821 2.5622 -7.1250 0.0000 -0.0000 3.0798 35.0414 -0.7541 0.0000 -0.0000 0.0000 80.4057 2.6114 48.1105 -27.9024 39.0263 -10.0622 0.0000 -0.0000 -18.3502 -29.3296 23.2212 -12.4909 7.1250 -0.0000 -0.0000 -0.1289 -3.7771 -0.1201
9.5077 17.7901 -1.2031 -0.5010 -2.4214 7.3659 0.0000 0.0000 0.0000 -20.8949 -9.3260 -17.7694 2.2933 9.4520 27.2196 0.5318 7.3912 -18.4174 0.0001 0.0777 0.2135 0.0000 0.0000 0.0000 21.1569 13.8537 -16.6449 -2.0071 -8.8808 25.4232 -0.4850 -6.3336 -16.9857 -0.0034 0.3762 -1.0337 1.6069 -0.8552 14.2946 0.2310 -0.8928 4.1974 -0.5134 -0.4464 -3.6003 -5.8580 -0.7342 -9.7504 6.6516 -0.1087 -10.7146 3.2028 0.0807 -1.7579 -0.0000 -0.0000 0.0000 -77.1145 4.2184 43.6324 37.1529 -46.2896 -16.3504 -0.0000 0.0000 -26.7136 28.1982 7.2964 3.8954 -7.1250 0.0000 -0.0000 1.2040 38.2434 -0.2004 -0.0000 -0.0000 0.0000 77.4995 0.9461 48.5413 -25.8014 37.0119 -8.7678 0.0000 -0.0000 -17.9558 -30.2156 23.7632 -13.2068 7.1250 -0.0000 -0.0000 -0.5882 -2.9818 -0.5568
